<svg xmlns="http://www.w3.org/2000/svg" width="23" height="18.466" viewBox="0 0 23 18.466">
  <path id="angle-double-left" d="M36.145,104.2l7.846-7.846a1.379,1.379,0,0,1,1.956,0l1.3,1.3a1.379,1.379,0,0,1,0,1.956l-5.555,5.567,5.561,5.561a1.379,1.379,0,0,1,0,1.956l-1.3,1.31a1.379,1.379,0,0,1-1.956,0l-7.846-7.846a1.381,1.381,0,0,1-.006-1.961Zm-11.076,1.961,7.846,7.846a1.379,1.379,0,0,0,1.956,0l1.3-1.3a1.379,1.379,0,0,0,0-1.956l-5.555-5.567,5.561-5.561a1.379,1.379,0,0,0,0-1.956l-1.3-1.31a1.379,1.379,0,0,0-1.956,0L25.074,104.2a1.381,1.381,0,0,0-.006,1.961Z" transform="translate(-24.662 -95.95)" fill="#bda376"/>
</svg>
