<svg xmlns="http://www.w3.org/2000/svg" width="23" height="26.286" viewBox="0 0 23 26.286">
  <path id="percent" d="M5.75,11.5A5.75,5.75,0,1,0,0,5.75,5.747,5.747,0,0,0,5.75,11.5Zm0-8.214A2.464,2.464,0,1,1,3.286,5.75,2.465,2.465,0,0,1,5.75,3.286Zm11.5,11.5A5.75,5.75,0,1,0,23,20.536,5.747,5.747,0,0,0,17.25,14.786Zm0,8.214a2.464,2.464,0,1,1,2.464-2.464A2.465,2.465,0,0,1,17.25,23ZM20.14.01,21.763.005a1.232,1.232,0,0,1,1.011,1.941L3.974,25.752a1.23,1.23,0,0,1-1.006.524l-1.715.005A1.232,1.232,0,0,1,.241,24.34L19.134.534A1.23,1.23,0,0,1,20.14.01Z" fill="#bda376"/>
</svg>
